<?xml version="1.0" encoding="UTF-8"?>
<!DOCTYPE svg PUBLIC "-//W3C//DTD SVG 1.1//EN" "http://www.w3.org/Graphics/SVG/1.1/DTD/svg11.dtd">
<!-- Creator: CorelDRAW X7 -->
<svg xmlns="http://www.w3.org/2000/svg" xml:space="preserve" width="7.712mm" height="7.2541mm" version="1.1" style="shape-rendering:geometricPrecision; text-rendering:geometricPrecision; image-rendering:optimizeQuality; fill-rule:evenodd; clip-rule:evenodd"
viewBox="0 0 3716 3495"
 xmlns:xlink="http://www.w3.org/1999/xlink">
 <defs>
  <style type="text/css">
   <![CDATA[
    .str0 {stroke:#FEFEFE;stroke-width:169.927;stroke-linecap:round;stroke-linejoin:round}
    .fil0 {fill:none}
    .fil1 {fill:#96989A}
   ]]>
  </style>
 </defs>
 <g id="Capa_x0020_1">
  <metadata id="CorelCorpID_0Corel-Layer"/>
  <g id="_1936855776608">
   <g>
    <path class="fil0 str0" d="M1280 2490l-84 920 945 -1085 -740 -1131 -79 841c-839,-131 -1133,-836 -552,-1184 200,-120 305,-137 543,-198l10 -105c-349,-8 -1263,311 -1238,926 20,491 647,892 1195,1016z"/>
    <path id="1" class="fil1" d="M1280 2490l-84 920 945 -1085 -740 -1131 -79 841c-839,-131 -1133,-836 -552,-1184 200,-120 305,-137 543,-198l10 -105c-349,-8 -1263,311 -1238,926 20,491 647,892 1195,1016z"/>
   </g>
   <g>
    <path class="fil0 str0" d="M1783 629l415 661 87 -576c522,134 1112,585 751,1054 -41,53 -123,125 -178,157 -70,40 -139,77 -216,110 44,57 231,186 302,242 92,73 104,160 328,-16 763,-601 178,-1260 -535,-1544l-328 -104 -111 -23 71 -505 -586 544z"/>
    <path id="1" class="fil1" d="M1783 629l415 661 87 -576c522,134 1112,585 751,1054 -41,53 -123,125 -178,157 -70,40 -139,77 -216,110 44,57 231,186 302,242 92,73 104,160 328,-16 763,-601 178,-1260 -535,-1544l-328 -104 -111 -23 71 -505 -586 544z"/>
   </g>
  </g>
 </g>
</svg>
